<svg width="41" height="32" viewBox="0 0 41 32" fill="none" xmlns="http://www.w3.org/2000/svg">
<g id="discord-black-icon 1">
<path id="Vector" d="M31.3468 7.03858C29.293 6.09275 27.1251 5.42154 24.8983 5.04206C24.596 5.58737 24.3192 6.15789 24.0748 6.7327C22.8903 6.55277 21.6942 6.46222 20.4964 6.4618C19.3004 6.4618 18.0986 6.55331 16.9174 6.73037C16.6762 6.15697 16.396 5.58842 16.0919 5.04175C13.8681 5.42353 11.6946 6.09858 9.64197 7.04251C5.56072 13.1219 4.4547 19.0494 5.00768 24.8928C7.3975 26.6701 10.0722 28.0219 12.9156 28.8894C13.5532 28.0226 14.1245 27.1 14.6094 26.1397C13.6842 25.7926 12.7913 25.3635 11.9412 24.8576C12.1649 24.6942 12.3837 24.526 12.595 24.3626C15.0667 25.5314 17.7675 26.1411 20.5 26.1411C23.2325 26.1411 25.9333 25.5314 28.4051 24.3624C28.6189 24.5381 28.8377 24.7064 29.0589 24.8574C28.2071 25.3643 27.3126 25.7945 26.3858 26.143C26.8724 27.1053 27.4391 28.0244 28.0796 28.8905C30.9256 28.0258 33.6025 26.674 35.9928 24.8945L35.9922 24.8952C36.6411 18.1188 34.8837 12.2458 31.3468 7.03858ZM15.3088 21.2992C13.7678 21.2992 12.4945 19.8909 12.4945 18.1584C12.4945 16.426 13.7235 15.0054 15.3039 15.0054C16.8844 15.0054 18.1477 16.426 18.1207 18.1584C18.0936 19.8909 16.8795 21.2992 15.3088 21.2992ZM25.6911 21.2992C24.1475 21.2992 22.8792 19.8909 22.8792 18.1584C22.8792 16.426 24.1082 15.0054 25.6911 15.0054C27.274 15.0054 28.5275 16.426 28.5005 18.1584C28.4734 19.8909 27.2617 21.2992 25.6911 21.2992Z" fill="#F4FAFF"/>
</g>
</svg>
