<svg width="51" height="51" viewBox="0 0 51 51" fill="none" xmlns="http://www.w3.org/2000/svg">
<g id="Discord">
<circle id="Ellipse 9" cx="25.5" cy="25.5" r="25" fill="#6B9080"/>
<path id="Vector" fill-rule="evenodd" clip-rule="evenodd" d="M25.4991 9.88027C16.8716 9.88027 9.875 16.8757 9.875 25.5043C9.875 32.4081 14.3514 38.2628 20.5597 40.3298C21.3411 40.4745 21.6283 39.9901 21.6283 39.5771C21.6283 39.2046 21.6127 37.9739 21.6064 36.6694C17.2592 37.6146 16.3428 34.8251 16.3428 34.8251C15.6323 33.0188 14.608 32.5384 14.608 32.5384C13.1905 31.5678 14.7159 31.5891 14.7159 31.5891C16.2845 31.6988 17.1104 33.1982 17.1104 33.1982C18.5049 35.5869 20.7667 34.8954 21.6577 34.4969C21.7984 33.4871 22.2021 32.7974 22.6496 32.4069C19.179 32.0131 15.5308 30.6728 15.5308 24.6854C15.5308 22.9801 16.1421 21.5856 17.1403 20.4921C16.9777 20.0977 16.4426 18.5095 17.2909 16.3577C17.2909 16.3577 18.6029 15.9373 21.5891 17.9593C22.8348 17.6138 24.171 17.4397 25.498 17.4339C26.8261 17.4397 28.1646 17.6132 29.4121 17.9593C32.3943 15.9385 33.7051 16.3577 33.7051 16.3577C34.5546 18.51 34.0217 20.0994 33.8591 20.4922C34.8608 21.5856 35.467 22.9801 35.467 24.6854C35.467 30.6866 31.8106 32.0061 28.3325 32.3931C28.8931 32.8775 29.3936 33.8285 29.3936 35.2853C29.3936 37.3747 29.3758 39.0586 29.3758 39.5725C29.3758 39.9883 29.6572 40.4745 30.4496 40.3222C36.6543 38.2542 41.125 32.3988 41.125 25.4991C41.125 16.8716 34.1296 9.875 25.5003 9.875L25.4992 9.88022L25.4991 9.88027Z" fill="#F4FAFF"/>
</g>
</svg>
