<svg width="33" height="32" viewBox="0 0 33 32" fill="none" xmlns="http://www.w3.org/2000/svg">
<g id="linkedin-square-icon 1" clip-path="url(#clip0_407_217)">
<path id="Vector" fill-rule="evenodd" clip-rule="evenodd" d="M29.1953 0.875H3.80469C2.19336 0.875 0.875 2.19336 0.875 3.80469V29.1953C0.875 30.8066 2.19336 32.125 3.80469 32.125H29.1953C30.8066 32.125 32.125 30.8066 32.125 29.1953V3.80469C32.125 2.19336 30.8066 0.875 29.1953 0.875ZM12.5933 26.2656H8.68779V12.5934H12.5933V26.2656ZM10.64 10.64C9.5604 10.64 8.68721 9.76685 8.68721 8.68721C8.68721 7.60703 9.56035 6.73389 10.64 6.73389C11.7202 6.73389 12.5933 7.60703 12.5933 8.68721C12.5933 9.7668 11.7202 10.64 10.64 10.64ZM26.2656 26.2656H22.36V18.4534C22.36 17.3732 21.4863 16.5001 20.4067 16.5001C19.3265 16.5001 18.4534 17.3732 18.4534 18.4534V26.2656H14.5466V12.5934H18.4534V15.0173C19.2579 13.9111 20.492 12.5934 21.871 12.5934C24.3007 12.5934 26.2655 14.7791 26.2655 17.4764L26.2656 26.2656Z" fill="#F4FAFF"/>
</g>
<defs>
<clipPath id="clip0_407_217">
<rect width="31.25" height="31.25" fill="white" transform="translate(0.875 0.875)"/>
</clipPath>
</defs>
</svg>
