<svg width="20" height="23" viewBox="0 0 20 23" fill="none" xmlns="http://www.w3.org/2000/svg">
<g id="Home">
<path id="Vector" d="M16.5884 9.8363C16.4911 9.83444 16.3944 9.85415 16.3042 9.89426C16.2139 9.93437 16.132 9.99406 16.0631 10.0698C15.9943 10.1455 15.94 10.2356 15.9036 10.3349C15.8671 10.4342 15.8492 10.5405 15.8509 10.6476V20.2726H4.15089V10.6476C4.15089 10.4324 4.07319 10.2261 3.93488 10.0739C3.79657 9.92177 3.60899 9.8363 3.41339 9.8363C3.21779 9.8363 3.03021 9.92177 2.8919 10.0739C2.75359 10.2261 2.67589 10.4324 2.67589 10.6476V21.1251C2.6742 21.2321 2.69212 21.3384 2.72858 21.4377C2.76504 21.537 2.81931 21.6271 2.88813 21.7028C2.95695 21.7785 3.03893 21.8382 3.12917 21.8783C3.21941 21.9185 3.31607 21.9382 3.41339 21.9363H16.5884C16.6857 21.9382 16.7824 21.9185 16.8726 21.8783C16.9629 21.8382 17.0448 21.7785 17.1137 21.7028C17.1825 21.6271 17.2367 21.537 17.2732 21.4377C17.3097 21.3384 17.3276 21.2321 17.3259 21.1251V10.6476C17.3276 10.5405 17.3097 10.4342 17.2732 10.3349C17.2367 10.2356 17.1825 10.1455 17.1137 10.0698C17.0448 9.99406 16.9629 9.93437 16.8726 9.89426C16.7824 9.85415 16.6857 9.83444 16.5884 9.8363Z" fill="#535657"/>
<path id="Vector_2" d="M19.5882 9.34122L10.4006 1.28372C10.2696 1.16765 10.1064 1.10437 9.93815 1.10437C9.7699 1.10437 9.6067 1.16765 9.47565 1.28372L0.40065 9.34122C0.32513 9.40838 0.262889 9.49181 0.217748 9.58639C0.172608 9.68097 0.14552 9.7847 0.13815 9.89122C0.124189 9.99583 0.130325 10.1025 0.156162 10.2043C0.181999 10.3062 0.226962 10.4009 0.28815 10.4825C0.347823 10.5672 0.422397 10.6377 0.50742 10.69C0.592442 10.7423 0.686169 10.7752 0.783005 10.7867C0.879841 10.7983 0.9778 10.7883 1.07103 10.7572C1.16427 10.7262 1.25086 10.6749 1.32565 10.6062L10.0006 2.96122L18.7506 10.62C18.827 10.6859 18.9144 10.7346 19.0078 10.7634C19.1013 10.7921 19.1989 10.8003 19.2953 10.7876C19.3916 10.7748 19.4847 10.7413 19.5693 10.6889C19.6539 10.6366 19.7282 10.5664 19.7881 10.4825C19.8481 10.3985 19.8924 10.3024 19.9185 10.1996C19.9446 10.0968 19.9521 9.98934 19.9405 9.88337C19.9289 9.77739 19.8984 9.67497 19.8509 9.58195C19.8033 9.48892 19.7395 9.40712 19.6631 9.34122H19.5882Z" fill="#535657"/>
</g>
</svg>
