<svg width="22" height="23" viewBox="0 0 22 23" fill="none" xmlns="http://www.w3.org/2000/svg">
<g id="info-circle-line-icon 1" clip-path="url(#clip0_407_174)">
<g id="Group">
<path id="Vector" d="M7.97446 17.9017V15.9693C7.97446 15.6748 8.21312 15.4364 8.50763 15.4364H8.76509V12.1989H8.46055C8.16603 12.1989 7.9272 11.96 7.9272 11.6655V9.6102C7.9272 9.31568 8.16603 9.07703 8.46055 9.07703H12.2516C12.6129 9.07703 12.8851 9.23011 13.0689 9.535C13.2005 9.7536 13.2664 10.0451 13.2664 10.4087V15.4364H13.5396C13.8341 15.4364 14.073 15.6748 14.073 15.9693V17.9017C14.073 18.1962 13.8341 18.435 13.5396 18.435H8.50763C8.21312 18.435 7.97446 18.1962 7.97446 17.9017ZM11 1.56633C10.3123 1.56633 9.64559 1.63096 9.00034 1.76023C8.35402 1.88949 7.73097 2.08231 7.13138 2.33833L7.13174 2.33905C6.52087 2.60169 5.95278 2.90856 5.42821 3.26054C4.9022 3.61342 4.41468 4.01428 3.96637 4.46437L3.96423 4.46634C3.51431 4.91465 3.11344 5.40216 2.76038 5.92816C2.4084 6.45273 2.10153 7.02099 1.83888 7.63168C1.83512 7.64027 1.83136 7.64869 1.82725 7.6571C1.5766 8.24864 1.38753 8.86326 1.26006 9.50027C1.13097 10.1455 1.06634 10.8122 1.06634 11.4997C1.06634 12.1876 1.13097 12.854 1.26006 13.4996C1.3895 14.1457 1.58215 14.7689 1.83817 15.3683H1.83888C2.10153 15.9788 2.40858 16.5471 2.76038 17.0717C3.11327 17.5977 3.51413 18.0854 3.96423 18.5337L3.96619 18.5358V18.5354C4.4145 18.9855 4.90202 19.3866 5.42803 19.7395C5.9526 20.0916 6.52087 20.3983 7.13156 20.6608C7.14015 20.6645 7.14857 20.6685 7.1568 20.6726C7.74852 20.9229 8.36297 21.1121 9.00016 21.2398C9.64541 21.3689 10.3121 21.4335 10.9998 21.4335C11.6875 21.4335 12.3541 21.3689 12.9995 21.2398C13.6456 21.1103 14.2688 20.9177 14.8683 20.6617L14.8679 20.6606C15.4788 20.398 16.047 20.0913 16.5716 19.7393C17.0976 19.3864 17.585 18.9854 18.0333 18.5353L18.0356 18.5335C18.4857 18.0852 18.8864 17.5973 19.2393 17.0715C19.5912 16.5469 19.8983 15.9787 20.1608 15.3681C20.1645 15.3594 20.1685 15.351 20.1724 15.3425C20.4229 14.7508 20.6121 14.1366 20.7396 13.4994C20.8688 12.854 20.9335 12.1874 20.9335 11.4996C20.9335 10.8121 20.8688 10.1453 20.7396 9.50009C20.6101 8.85377 20.4175 8.23073 20.1615 7.63132L20.1608 7.6315C19.8981 7.02063 19.5911 6.45256 19.2393 5.92798C18.8864 5.40198 18.4855 4.91447 18.0354 4.46616L18.0334 4.46401C17.5851 4.01392 17.0974 3.61324 16.5716 3.26018C16.047 2.9082 15.4788 2.60116 14.8679 2.33869C14.8593 2.33493 14.8509 2.33099 14.8427 2.32705C14.2509 2.07658 13.6365 1.88734 12.9993 1.75987C12.3544 1.63096 11.6877 1.56633 11 1.56633ZM8.79212 0.714663C9.50684 0.571614 10.243 0.5 11 0.5C11.757 0.5 12.4932 0.571614 13.2079 0.714663C13.911 0.855384 14.5951 1.06682 15.2598 1.34863C15.2697 1.35221 15.2792 1.35615 15.289 1.36008C15.9514 1.64511 16.5764 1.98366 17.1633 2.37754C17.7482 2.76998 18.2896 3.21507 18.7865 3.7135C19.2849 4.21032 19.73 4.7519 20.1224 5.33681C20.5161 5.92333 20.8549 6.54852 21.1399 7.21095L21.139 7.21131L21.1399 7.2131C21.4274 7.88627 21.6428 8.57931 21.7853 9.29205C21.9284 10.0068 21.9998 10.743 21.9998 11.4999C21.9998 12.257 21.9284 12.9934 21.7853 13.7078C21.6446 14.411 21.4332 15.0949 21.1514 15.7597C21.1478 15.7695 21.144 15.7792 21.1399 15.7891C20.8549 16.4513 20.5163 17.0765 20.1224 17.6634C19.73 18.2481 19.2849 18.7897 18.7865 19.2865C18.2896 19.7848 17.7481 20.23 17.1633 20.6223C16.5766 21.016 15.9514 21.3549 15.289 21.6399L15.2886 21.6392L15.2867 21.6399C14.6135 21.9273 13.9204 22.1428 13.2079 22.2853C12.4932 22.4284 11.757 22.5 11 22.5C10.243 22.5 9.50684 22.4284 8.79212 22.2853C8.08905 22.1444 7.40477 21.9332 6.74019 21.6514C6.73034 21.6478 6.72067 21.644 6.711 21.6399C6.04839 21.3549 5.42337 21.0162 4.83667 20.6223C4.25176 20.23 3.71035 19.7848 3.21353 19.2865C2.71509 18.7897 2.27 18.2479 1.87756 17.6634C1.48385 17.0767 1.14512 16.4513 0.860091 15.7891L0.860807 15.7887L0.860091 15.7869C0.57238 15.1137 0.357178 14.4203 0.214665 13.7078C0.0716146 12.9932 0 12.2569 0 11.4997C0 10.7428 0.0716146 10.0066 0.214665 9.29187C0.355387 8.5888 0.56665 7.90471 0.848633 7.24013C0.852214 7.23028 0.855973 7.22062 0.860091 7.21077C1.14512 6.54834 1.48368 5.92315 1.87756 5.33663C2.27 4.75172 2.71509 4.21014 3.21353 3.71332C3.71035 3.21489 4.25176 2.76981 4.83667 2.37736C5.42337 1.98366 6.04839 1.64493 6.711 1.35991L6.71136 1.36062L6.71315 1.35991C7.38633 1.07237 8.07956 0.857175 8.79212 0.714663ZM9.0408 16.4928V17.3685H13.0063V16.4928C12.9184 16.4785 12.8321 16.4477 12.7478 16.4008C12.6586 16.3519 12.5746 16.2871 12.495 16.2078C12.4164 16.1292 12.3515 16.0438 12.3014 15.9518C12.2343 15.829 12.2001 15.7038 12.2001 15.5769V10.4089C12.2001 10.2909 12.1929 10.2024 12.1786 10.1435H8.99372V11.1359C9.10096 11.1465 9.20516 11.1809 9.30578 11.2387L9.30488 11.2403L9.30578 11.2408C9.38151 11.2845 9.45474 11.3418 9.52492 11.4127C9.53656 11.4235 9.54819 11.4347 9.55911 11.4467C9.63538 11.53 9.69554 11.6129 9.73833 11.6954C9.8001 11.8139 9.83161 11.935 9.83161 12.0583V15.5771C9.83161 15.6879 9.80654 15.7968 9.75749 15.9033C9.75176 15.9172 9.74531 15.9312 9.73815 15.9448C9.69411 16.0295 9.63288 16.1127 9.55518 16.1951C9.47622 16.2791 9.39279 16.3462 9.30435 16.3965C9.21823 16.4456 9.13068 16.4778 9.0408 16.4928ZM11.0079 8.47583C10.7159 8.47583 10.4455 8.43197 10.1963 8.34424C9.93831 8.25311 9.70897 8.11633 9.50809 7.93318C9.4986 7.92476 9.48965 7.91581 9.48105 7.90686C9.2868 7.72532 9.14035 7.51584 9.04116 7.2788C8.93893 7.03442 8.88826 6.76676 8.88826 6.47673C8.88826 6.18741 8.93893 5.91832 9.04134 5.67089C9.14608 5.41738 9.30148 5.19573 9.50809 5.00703L9.51883 4.99754C9.71541 4.8185 9.94046 4.68351 10.1942 4.5922C10.4461 4.50143 10.7173 4.45632 11.0079 4.45632C11.3054 4.45632 11.5797 4.5009 11.8313 4.59005C12.0914 4.68244 12.322 4.82137 12.5231 5.00703L12.5232 5.00685C12.7298 5.19555 12.8853 5.4172 12.9902 5.67071C13.0924 5.91814 13.1431 6.18723 13.1431 6.47655C13.1431 6.76676 13.0926 7.03442 12.9902 7.2788C12.8863 7.52694 12.7307 7.74501 12.5223 7.93228L12.5232 7.93318C12.3227 8.11597 12.0914 8.25293 11.8291 8.34424C11.5765 8.43215 11.3029 8.47583 11.0079 8.47583ZM10.5504 7.34039C10.6813 7.38658 10.8339 7.40968 11.0081 7.40968C11.1896 7.40968 11.3468 7.38676 11.4795 7.34039C11.6026 7.2976 11.7118 7.23279 11.8069 7.14614L11.8078 7.14703L11.8112 7.14399C11.8988 7.06557 11.9641 6.97444 12.0076 6.87078C12.0542 6.75942 12.0773 6.62801 12.0773 6.47673C12.0773 6.32186 12.0542 6.18776 12.0074 6.07479C11.9645 5.97059 11.8977 5.87696 11.8071 5.79424L11.8075 5.79406L11.803 5.79013C11.7095 5.70329 11.601 5.63777 11.4777 5.59408C11.3438 5.54646 11.1873 5.52283 11.0084 5.52283C10.8331 5.52283 10.6811 5.54592 10.5529 5.59211C10.4368 5.63383 10.3318 5.69721 10.2384 5.78189C10.2341 5.78619 10.2298 5.79031 10.2251 5.79442C10.1345 5.87714 10.0679 5.97077 10.0248 6.07497C9.97824 6.18776 9.95496 6.32204 9.95496 6.47673C9.95496 6.62783 9.97806 6.75942 10.0246 6.8706C10.0645 6.96603 10.1229 7.05071 10.2001 7.12465C10.2085 7.13146 10.2169 7.13862 10.225 7.14596C10.3197 7.23243 10.4282 7.29724 10.5504 7.34039Z" fill="#535657"/>
</g>
</g>
<defs>
<clipPath id="clip0_407_174">
<rect width="22" height="22" fill="white" transform="translate(0 0.5)"/>
</clipPath>
</defs>
</svg>
