<svg width="37" height="25" viewBox="0 0 37 25" fill="none" xmlns="http://www.w3.org/2000/svg">
<path id="Vector" d="M2.10946 0H34.8905C35.4508 0.00517439 35.9864 0.216109 36.3813 0.58711C36.7761 0.95811 36.9984 1.4593 36.9999 1.98212V23.001C37.0031 23.4021 36.8748 23.7945 36.6323 24.1256C36.5887 24.2317 36.5208 24.3277 36.4334 24.4068C36.3746 24.4592 36.3075 24.5028 36.2345 24.5361C35.8543 24.8354 35.3729 24.9997 34.8754 25H2.10946C1.5517 24.9949 1.01834 24.7859 0.623922 24.4179C0.229506 24.0499 0.00549558 23.5523 0 23.0319V1.98212C0.00155779 1.4593 0.223829 0.95811 0.618665 0.58711C1.0135 0.216109 1.54911 0.00517439 2.10946 0ZM2.01906 22.166L13.1028 11.4204L2.01906 2.68219V22.166ZM14.7723 12.7615L2.92914 23.4621H33.9683L22.6526 12.7615L19.3377 15.3509C19.1917 15.4641 19.0078 15.526 18.8179 15.526C18.628 15.526 18.4441 15.4641 18.2981 15.3509L14.7723 12.7615ZM24.295 11.4007L34.9809 22.2531V2.58659L24.295 11.4007ZM3.06173 1.52103L18.7863 13.4109L33.8177 1.52103H3.06173Z" fill="#DEE7E7"/>
</svg>
